<?xml version="1.0" encoding="UTF-8" standalone="no"?> <!-- Created with Vectornator for iOS (http://vectornator.io/) --><!DOCTYPE svg PUBLIC "-//W3C//DTD SVG 1.1//EN" "http://www.w3.org/Graphics/SVG/1.1/DTD/svg11.dtd">
<svg height="100%" style="fill-rule:nonzero;clip-rule:evenodd;stroke-linecap:round;stroke-linejoin:round;" xmlns:xlink="http://www.w3.org/1999/xlink" xmlns="http://www.w3.org/2000/svg" xml:space="preserve" width="100%" xmlns:vectornator="http://vectornator.io" version="1.1" viewBox="0 0 1536 396">
<metadata>
<vectornator:setting key="DimensionsVisible" value="1"/>
<vectornator:setting key="PencilOnly" value="0"/>
<vectornator:setting key="SnapToPoints" value="0"/>
<vectornator:setting key="OutlineMode" value="0"/>
<vectornator:setting key="CMYKEnabledKey" value="0"/>
<vectornator:setting key="RulersVisible" value="1"/>
<vectornator:setting key="SnapToEdges" value="0"/>
<vectornator:setting key="GuidesVisible" value="1"/>
<vectornator:setting key="DisplayWhiteBackground" value="0"/>
<vectornator:setting key="doHistoryDisabled" value="0"/>
<vectornator:setting key="SnapToGuides" value="1"/>
<vectornator:setting key="TimeLapseWatermarkDisabled" value="0"/>
<vectornator:setting key="Units" value="Pixels"/>
<vectornator:setting key="DynamicGuides" value="0"/>
<vectornator:setting key="IsolateActiveLayer" value="0"/>
<vectornator:setting key="SnapToGrid" value="0"/>
</metadata>
<defs/>
<g id="Layer 1" vectornator:layerName="Layer 1">
<path d="M-2.66949-12.7066C13.2507-12.7066+29.8652-10.822+45.7828-12.1612C56.3608-13.0512+66.7927-15.6993+77.4161-16.3696C84.9349-16.8441+92.2894-17.4287+99.7039-18.249C100.882-18.3794+105.68-18.5568+106.566-19.4578" opacity="1" fill="#000000"/>
<path d="M-12.5088+144.314C-10.1284+145.577-7.61049+146.576-5.07958+147.502C-2.6523+148.389+3.85495+145.684+5.93164+145.069C16.9549+141.808+25.7438+134.569+33.2165+126.968C34.3746+125.79+37.4646+125.257+38.7884+124.359C43.9759+120.841+48.3574+117.274+52.9541+112.618C53.9755+111.583+54.3054+118.744+54.2365+118.993C53.3748+122.111+52.0304+125.08+51.1484+128.191C50.9488+128.895+50.7135+131.075+50.7135+130.343C50.7135+129.286+52.1342+128.536+52.8583+128.169C55.8672+126.645+59.5632+125.557+63.958+126.43C65.2892+126.694+66.8266+128.19+68.2475+127.712C74.7027+125.543+83.6376+119.976+88.1178+115.419C89.4075+114.107+93.2469+115.653+94.8985+115.411C98.8967+114.825+102.899+114.169+106.934+113.959C108.672+113.869+110.581+112.746+112.138+113.524C118.614+116.763+123.212+119.041+130.401+120.254C132.519+120.611+135.302+119.28+136.821+120.799C141.903+125.882+147.558+135.15+154.303+139.026C154.648+139.224+161.055+140.937+161.946+141.532C164.409+143.174+165.797+144.865+168.999+146.359C172.863+148.162+176.791+149.844+180.807+151.275C183.578+152.263+186.626+152.066+189.216+153.361C189.987+153.746+190.265+151.992+190.742+151.275C192.506+148.624+194.459+146.09+196.034+143.323C197.684+140.422+198.638+135.37+200.942+133.026C201.311+132.652+203.45+136.664+204.62+137.249C208.639+139.259+215.101+139.296+218.69+140.699C224.79+143.084+230.795+145.029+237.086+146.868C238.176+147.186+239.645+146.611+240.447+147.413C243.706+150.672+248.721+151.472+252.873+153.471C256.272+155.108+273.345+162.232+278.574+160.333C280.477+159.642+281.565+155.902+282.679+154.769C282.851+154.593+283.371+155.115+283.534+155.196C287.422+157.14+289.569+159.072+293.307+160.938C300.076+164.316+307.107+166.893+313.781+170.467C315.498+171.387+318.561+173.748+319.42+172C321.223+168.331+317.807+154.948+320.695+153.479C321.678+152.979+326.783+155.249+327.984+155.528C331.933+156.446+336.012+156.665+340.02+157.275C351.63+159.039+366.145+161.389+376.635+166.635C379.42+168.027+381.53+170.812+384.448+172.133C387.818+173.66+392.844+173.876+396.454+174.543C398.381+174.899+400.746+176.274+402.306+175.089C409.623+169.53+404.008+162.248+406.713+156.744C408.474+153.162+412.515+150.929+415.175+148.261C417.539+145.889+419.74+141.794+422.397+139.969C426.675+137.031+433.305+132.885+438.465+131.987C451.671+129.689+465.639+133.113+478.81+131.427C485.623+130.555+489.522+123.48+495.054+120.666C497.494+119.425+501.326+121.575+503.979+120.231C506.036+119.19+507.376+117.086+509.286+115.794C517.085+110.523+521.315+109.149+531.213+107.208C539.369+105.609+545.678+115.478+553.331+118.721C560.717+121.85+568.653+123.583+576.518+125.162C589.954+127.86+603.513+130.036+617.135+131.53C631.665+133.124+646.846+130.128+660.775+126.791C666.789+125.35+668.546+122.064+670.224+116.966C670.424+116.359+670.209+111.395+670.224+111.402C674.706+113.585+680.241+113.776+685.406+114.343C686.85+114.501+688.463+113.695+689.762+114.343C694.647+116.774+701.045+118.346+706.176+119.369C707.763+119.686+712.296+119.956+713.546+118.065C716.487+113.615+714.963+104.096+714.423+99.344C714.4+99.1381+712.162+90.5718+713.001+89.7184C716.511+86.1479+734.32+88.5822+739.07+87.9495C745.27+87.1235+751.405+85.3276+757.724+84.6476C767.679+83.5764+775.231+86.3536+784.552+87.6989C796.903+89.4818+808.991+92.8483+821.322+95.0545C823.964+95.5272+834.996+95.5567+837.913+97.015C841.533+98.8251+845.217+102.116+849.351+102.874C850.455+103.077+851.26+96.0315+851.297+95.7473C852.02+90.2191+849.906+85.2258+851.754+79.5179C852.768+76.3856+855.14+73.8604+857.075+71.1968C860.206+66.8884+868.266+57.1808+874.263+55.1591C880.239+53.1444+891.509+55.1591+897.627+55.1591C906.412+55.1591+915.197+55.1591+923.983+55.1591C926.921+55.1591+932.7+54.401+936.114+55.1591C948.724+57.9584+961.121+61.7713+973.85+63.9592C991.524+66.9969+1006.37+66.6395+1023.63+67.5264C1034.35+68.0775+1045.02+69.5427+1055.75+69.8997C1063.52+70.1583+1071.31+69.8997+1079.08+69.8997C1081.56+69.8997+1085.97+70.5078+1088.57+69.3469C1092.58+67.555+1095.16+63.4629+1098.69+61.0627C1100.62+59.7483+1105.66+58.5397+1106.97+57.8419C1116.83+52.5825+1125.68+44.5297+1137.01+42.3937C1137.82+42.2416+1138.15+42.9598+1138.72+43.2487C1139.57+43.6741+1142.47+43.1298+1143.01+43.6762C1144.83+45.4973+1144.74+50.7626+1147.73+50.8843C1155.08+51.1831+1162.45+51.2625+1169.79+50.8843C1172.49+50.7451+1175.1+48.8522+1177.76+49.3439C1177.9+49.3692+1173.51+51.988+1174.29+52.7637C1175.2+53.6804+1179.95+53.27+1180.92+53.1912C1181.37+53.1545+1182.22+52.3027+1182.21+52.7564C1182.17+55.1138+1177.37+56.2088+1183.81+59.4265C1183.9+59.4705+1193.03+55.5995+1194.33+55.5939C1195.75+55.5878+1194.87+62.1803+1195.18+62.8095C1195.64+63.7341+1200.48+61.6672+1204.24+60.7089C1209.61+59.3395+1207.88+60.2493+1212.95+62.323C1213.44+62.5241+1215.15+61.9435+1215.53+62.323C1217.46+64.2531+1216.36+68.1107+1218.64+69.966C1220.27+71.2938+1221.66+73.0028+1223.56+73.9017C1228.22+76.1081+1234.6+74.2945+1237.67+75.8696C1237.7+75.8841+1241.35+89.729+1241.89+90.8755C1241.97+91.0599+1242.22+90.6231+1242.31+90.4407C1243.6+87.817+1247.17+87.1766+1249.74+85.7679C1252.61+84.1897+1255.62+82.8873+1258.52+81.3679C1273.2+73.6797+1285.61+67.8342+1301.28+62.4925C1308.43+60.0542+1309.77+60.6475+1316.87+60.0824C1329.51+59.077+1342.24+57.7877+1354.89+56.7511C1359.51+56.3733+1366.43+54.1321+1371.15+55.6971C1375.42+57.1099+1376.65+69.2044+1379.7+70.7325C1381.17+71.4665+1389.08+65.6659+1392.09+66.2661C1395.2+66.8847+1399.17+71.8903+1402.36+73.3195C1421.99+82.1174+1439.13+77.858+1459.23+76.1644C1469.12+75.3308+1480.68+75.1659+1490.04+72.015C1492.22+71.2799+1493.56+69.3741+1496.04+68.5362C1502.59+66.3141+1509.85+69.4783+1516.76+69.7228C1526.5+70.0672+1536.25+69.7228+1546+69.7228C1546.29+69.7228+1546.6+69.8522+1546.86+69.7228C1547.78+69.2613+1546.58+67.6929+1546.43+66.6789C1545.67+61.5212+1545.74+55.9459+1545.22+50.7074C1543.78+36.2279+1544.66+21.1581+1544.66+6.58148C1544.66+2.55939+1546.4-4.03645+1545.09-7.96748C1540.05-23.1013+1519.98-19.8503+1506.16-20.3422C1497.41-20.6533+1488.67-21.1273+1479.93-21.5878C1472.68-21.97+1465.43-22.4449+1458.17-22.8702C1441.15-23.869+1424.08-24.7064+1407.01-24.0642C1387.98-23.3483+1368.52-19.7487+1349.71-17.0035C1340.09-15.5985+1330-16.1409+1320.26-15.4115C1312.94-14.8631+1305.69-13.5253+1298.36-13.1119C1285.32-12.3765+1272.23-13.4218+1259.17-13.1119C1231.81-12.4629+1204.59-11.8369+1177.23-11.8369C1168.77-11.8369+1160.48-11.1873+1152.11-10.7903C1130.43-9.76188+1108.61-11.7961+1086.93-10.7903C1070.79-10.0412+1054.47-7.78149+1038.28-6.73664C1027.08-6.01373+1015.77-6.22376+1004.55-5.60162C991.872-4.89801+979.029-5.60162+966.333-5.60162C927.777-5.60162+889.063-6.76809+850.531-5.60162C827.594-4.90726+804.662-4.70981+781.655-4.70981C771.64-4.70981+758.995-3.34981+748.732-4.70981C727.026-7.58603+705.127-11.529+683.291-13.5542C652.197-16.438+621.096-13.4638+589.961-15.1609C574.786-15.9881+559.507-17.3284+544.391-18.3301C534.487-18.9864+524.453-17.6921+514.548-18.3301C489.369-19.952+464.119-21.3073+439.003-22.1332C419.322-22.7804+398.821-19.8758+379.244-22.1332C347.896-25.7481+315.525-21.8425+284.035-23.0324C239.585-24.7118+195.103-24.1379+150.596-24.1379C135.382-24.1379+119.933-22.8782+104.767-21.5067C98.1806-20.9111+91.711-21.3592+85.1402-20.3127C80.0217-19.4975+74.0101-20.5477+68.815-20.3127C54.1971-19.6515+39.0577-20.181+24.7627-17.0477C15.295-14.9724+5.93536-12.9833-3.69396-11.6747C-5.05887-11.4893-9.67013-11.7281-10.5041-10.9082C-11.4789-9.94999-11.0089-4.32138-11.4917-2.88935C-14.6664+6.52698-16.0982+18.2033-16.0982+29.3557C-16.0982+36.7898-15.3621+44.6662-16.0982+52.0857C-16.7289+58.4437-18.1903+65.4962-19.7759+71.6464C-23.6626+86.7215-25.3467+105.358-22.783+120.873C-20.7397+133.238-25.6657+137.333-12.5088+144.314Z" opacity="1" fill="#ffffff"/>
</g>
</svg>
